<svg xmlns="http://www.w3.org/2000/svg" version="1.1" xmlns:xlink="http://www.w3.org/1999/xlink" xmlns:svgjs="http://svgjs.dev/svgjs" width="308.7612359841165" height="304.915625" viewBox="0 0 1000 999"><g transform="matrix(1,0,0,1,-0.215743440233382,-0.21552769679306039)"><svg viewBox="0 0 343 343" data-background-color="#fdf8f1" preserveAspectRatio="xMidYMid meet" height="999" width="1000" xmlns="http://www.w3.org/2000/svg" xmlns:xlink="http://www.w3.org/1999/xlink"><g id="tight-bounds" transform="matrix(1,0,0,1,0.0740000000000407,0.07400000000001228)"><svg viewBox="0 0 342.85155851775386 342.85155851775386" height="342.85155851775386" width="342.85155851775386"><g><svg></svg></g><g><svg viewBox="0 0 342.85155851775386 342.85155851775386" height="342.85155851775386" width="342.85155851775386"><g><path d="M0 171.426c0-94.676 76.75-171.426 171.426-171.426 94.676 0 171.426 76.75 171.426 171.426 0 94.676-76.75 171.426-171.426 171.426-94.676 0-171.426-76.75-171.426-171.426zM171.426 331.453c88.381 0 160.027-71.647 160.027-160.027 0-88.381-71.647-160.027-160.027-160.028-88.381 0-160.027 71.647-160.028 160.028 0 88.381 71.647 160.027 160.028 160.027z" data-fill-palette-color="tertiary" fill="#fa4238" stroke="transparent"></path><ellipse rx="164.56874808852186" ry="164.56874808852186" cx="171.42577925887693" cy="171.42577925887693" fill="#fa4238" stroke="transparent" stroke-width="0" fill-opacity="1" data-fill-palette-color="tertiary"></ellipse></g><g transform="matrix(1,0,0,1,64.84655864529837,108.22853382284706)"><svg viewBox="0 0 213.1584412271571 126.39449087205976" height="126.39449087205976" width="213.1584412271571"><g><svg viewBox="0 0 213.1584412271571 126.39449087205976" height="126.39449087205976" width="213.1584412271571"><g><svg viewBox="0 0 213.1584412271571 126.39449087205976" height="126.39449087205976" width="213.1584412271571"><g id="textblocktransform"><svg viewBox="0 0 213.1584412271571 126.39449087205976" height="126.39449087205976" width="213.1584412271571" id="textblock"><g><svg viewBox="0 0 213.1584412271571 126.39449087205976" height="126.39449087205976" width="213.1584412271571"><g transform="matrix(1,0,0,1,0,0)"><svg width="213.1584412271571" viewBox="4.300000190734863 -32.45000076293945 55.400001525878906 32.85000228881836" height="126.39449087205976" data-palette-color="#fdf8f1"><path d="M16.5-32.3Q23.4-32.3 27.1-28.4 30.8-24.5 30.8-17.2L30.8-17.2Q30.8-8.75 26.75-4.23 22.7 0.3 15.1 0.3L15.1 0.3Q12.95 0.3 9.95 0.23 6.95 0.15 4.35 0L4.35 0 4.3 0 4.65-9.65 4.3-32.1 4.35-32.1 16.5-32.3ZM16-3.8Q20.6-3.8 23.03-6.85 25.45-9.9 25.45-16.05L25.45-16.05Q25.45-22.25 23.13-25.18 20.8-28.1 16.1-28.1L16.1-28.1Q13.35-28.1 9.55-27.9L9.55-27.9 9.3-10.1 9.45-4.15Q11.25-4 13.05-3.9 14.85-3.8 16-3.8L16-3.8ZM50.3-32.45Q55.35-32.45 59.7-30.3L59.7-30.3 58.65-25.5 58.1-25.45Q55.65-26.9 53.65-27.53 51.65-28.15 49.45-28.15L49.45-28.15Q44.45-28.15 42-25.13 39.55-22.1 39.55-15.6L39.55-15.6Q39.55-9.4 41.85-6.63 44.15-3.85 49.15-3.85L49.15-3.85Q50.4-3.85 51.62-4.08 52.85-4.3 54.7-4.85L54.7-4.85 54.85-8.1 54.7-13.05 59.55-13.4 59.45-8.9 59.6-1.55Q53.4 0.4 48.85 0.4L48.85 0.4Q41.5 0.4 37.85-3.68 34.2-7.75 34.2-15.35L34.2-15.35Q34.2-23.65 38.37-28.05 42.55-32.45 50.3-32.45L50.3-32.45Z" opacity="1" transform="matrix(1,0,0,1,0,0)" fill="#fdf8f1" class="wordmark-text-0" data-fill-palette-color="quaternary" id="text-0"></path></svg></g></svg></g></svg></g></svg></g><g></g></svg></g></svg></g></svg></g><defs></defs></svg><rect width="342.85155851775386" height="342.85155851775386" fill="none" stroke="none" visibility="hidden"></rect></g></svg></g></svg>